<?xml version="1.0" encoding="utf-8"?>
<!-- Generator: Adobe Illustrator 26.0.1, SVG Export Plug-In . SVG Version: 6.00 Build 0)  -->
<svg version="1.1" id="Capa_1" xmlns="http://www.w3.org/2000/svg" xmlns:xlink="http://www.w3.org/1999/xlink" x="0px" y="0px"
	 viewBox="0 0 612 792" style="enable-background:new 0 0 612 792;" xml:space="preserve">
<style type="text/css">
	.st0{fill:#CF3F3F;}
	.st1{fill:#FEFDFD;}
	.st2{fill:#E04B4B;}
	.st3{fill:#7FB141;}
	.st4{fill:#8D6D53;}
</style>
<path class="st0" d="M298.07,441.29c6.22,5.48,10.42,12.37,13.49,19.92c5.75,14.16,7.26,28.94,6.12,44.1
	c-1.21,16.03-5.31,31.27-12.33,45.68c-7.43,15.25-17.37,28.48-31.81,37.86c-6.49,4.22-13.49,7.21-21.31,7.93
	c-0.24,0.02-0.47,0.23-0.7,0.35c-2.96,0-5.93,0-8.89,0c-9.18-2.05-18.35-1.89-27.53,0c-3.11,0-6.21,0-9.32,0
	c-1.81-0.43-3.62-0.84-5.42-1.29c-4.87-1.21-9.46-3.11-13.72-5.77c-0.17-1.11,0.78-1.23,1.42-1.49c9.46-3.81,18.43-8.55,26.99-14.06
	c8.26-5.32,15.95-11.38,23.21-18.01c7.31-6.68,13.92-14.01,20.01-21.79c6.58-8.41,12.3-17.39,17.35-26.8
	c6.97-13,12.22-26.67,16.16-40.86c2.17-7.82,3.69-15.8,4.9-23.83C296.82,442.41,296.71,441.31,298.07,441.29z"/>
<path class="st1" d="M215.1,597.15c9.18-2.85,18.35-3.11,27.53,0C233.46,597.15,224.28,597.15,215.1,597.15z"/>
<path class="st2" d="M298.07,441.29c-1.4,1.06-0.97,2.71-1.17,4.07c-1.41,9.23-3.52,18.29-6.16,27.25
	c-2.93,9.94-6.69,19.58-11.17,28.89c-4.82,10.02-10.55,19.55-17.08,28.58c-5.73,7.93-12.02,15.41-18.97,22.27
	c-11,10.84-23.13,20.25-36.67,27.78c-6.16,3.42-12.46,6.55-19.03,9.1c-0.46,0.18-0.92,0.37-1.16,0.86
	c-10.68-6.38-19.03-15.16-25.92-25.39c-10.86-16.14-17.14-34.05-19.61-53.24c-2.23-17.31-1.06-34.36,5.76-50.66
	c4.73-11.3,11.78-20.7,23.05-26.26c8.07-3.98,16.57-4.72,25.32-2.63c6.23,1.49,12.31,3.59,18.68,4.46c3.9,0.54,7.8,1.2,11.77,1.06
	c0.22-0.18,0.45-0.39,0.72-0.41c4.17-0.4,8.36-0.12,12.54-0.42c0.26-0.02,0.51,0.2,0.75,0.35c7.61-0.67,14.86-2.95,22.21-4.81
	c13.07-3.3,24.77-0.5,35.07,8.18C297.37,440.63,297.71,440.97,298.07,441.29z"/>
<path class="st3" d="M226.51,432.38c-8.93-0.01-17.52-1.5-25.41-5.95c-12.61-7.11-19.88-17.97-22.38-32.11
	c-0.71-4.03-1.03-8.09-0.64-12.2c0.12-1.22,0.41-1.7,1.71-1.75c15.64-0.58,29.18,3.99,39.56,16.18c5.88,6.9,8.96,15.05,10.21,23.96
	c0.25,0.53,0.5,1.06,0.45,1.67c-0.66,3.08-1.97,5.98-2.65,9.06C227.25,431.72,226.98,432.14,226.51,432.38z"/>
<path class="st4" d="M226.51,432.38c0.77-3.47,1.96-6.81,3.04-10.18c0.26-0.42,0.19-1.04,0.77-1.26
	c7.31-14.49,18.71-23.87,34.58-27.63c1.91-0.45,3.87-0.79,5.82-0.98c3.42-0.33,6.6,2.24,7.12,5.58c0.57,3.65-1.43,6.98-4.91,7.76
	c-3.49,0.79-7.08,1.2-10.42,2.6c-12.51,5.26-20.04,14.6-22.79,27.84c-0.06,0.27,0,0.56,0,0.84c-4.65,0.73-9.33,0.55-14.01,0.48
	C225.97,435.74,226.24,434.06,226.51,432.38z"/>
</svg>
